# xmcd CD database file generated by libcdaudio 0.99.6
# 
# Track frame offsets:
#       150
#       16131
#       30208
#       45767
#       63546
#       86310
#       105252
#       120471
#       135435
#       147694
# 
# Disc length: 2161 seconds
# 
# Revision: 1
# Processed by: cddbd v1.5.1PL0 Copyright (c) Steve Scherf et al.
# Submitted via: libcdaudio 0.99.6
# 
DISCID=6d086f0a
DTITLE=James Henry - Calm Crazy
DYEAR=1900
DGENRE=
TTITLE0=Calm Crazy
TTITLE1=When you Lie
TTITLE2=Albert and Lucy
TTITLE3=Another Way
TTITLE4=7 Hours
TTITLE5=Give me Time
TTITLE6=Wish I was Home
TTITLE7=Walking out the Door
TTITLE8=Changed my Way
TTITLE9=Love and Hate
EXTD=
EXTT0=
EXTT1=
EXTT2=
EXTT3=
EXTT4=
EXTT5=
EXTT6=
EXTT7=
EXTT8=
EXTT9=
PLAYORDER=
